<svg width="98" height="91" viewBox="0 0 98 91" fill="none" xmlns="http://www.w3.org/2000/svg">
<rect width="98" height="91" rx="4" fill="#AAC9A5"/>
<path d="M28.1689 43.1534C27.7541 43.1534 27.3777 43.0753 27.0396 42.919C26.7015 42.7599 26.4331 42.5312 26.2342 42.233C26.0353 41.9318 25.9359 41.5682 25.9359 41.142C25.9359 40.767 26.0098 40.4631 26.1575 40.2301C26.3052 39.9943 26.5027 39.8097 26.7498 39.6761C26.997 39.5426 27.2697 39.4432 27.568 39.3778C27.8691 39.3097 28.1717 39.2557 28.4757 39.2159C28.8734 39.1648 29.1958 39.1264 29.443 39.1009C29.693 39.0724 29.8748 39.0256 29.9885 38.9602C30.1049 38.8949 30.1632 38.7812 30.1632 38.6193V38.5852C30.1632 38.1648 30.0481 37.8381 29.818 37.6051C29.5907 37.3722 29.2456 37.2557 28.7825 37.2557C28.3024 37.2557 27.926 37.3608 27.6532 37.571C27.3805 37.7812 27.1887 38.0057 27.0779 38.2443L26.1234 37.9034C26.2939 37.5057 26.5211 37.196 26.8052 36.9744C27.0922 36.75 27.4047 36.5937 27.7427 36.5057C28.0836 36.4148 28.4189 36.3693 28.7484 36.3693C28.9586 36.3693 29.2001 36.3949 29.4728 36.446C29.7484 36.4943 30.014 36.5952 30.2697 36.7486C30.5282 36.902 30.7427 37.1335 30.9132 37.4432C31.0836 37.7528 31.1689 38.1676 31.1689 38.6875V43H30.1632V42.1136H30.112C30.0439 42.2557 29.9302 42.4077 29.7711 42.5696C29.612 42.7315 29.4004 42.8693 29.1362 42.983C28.872 43.0966 28.5495 43.1534 28.1689 43.1534ZM28.3223 42.25C28.72 42.25 29.0552 42.1719 29.3279 42.0156C29.6035 41.8594 29.8109 41.6577 29.9501 41.4105C30.0922 41.1634 30.1632 40.9034 30.1632 40.6307V39.7102C30.1206 39.7614 30.0268 39.8082 29.8819 39.8509C29.7399 39.8906 29.5751 39.9261 29.3876 39.9574C29.2029 39.9858 29.0225 40.0114 28.8464 40.0341C28.6731 40.054 28.5325 40.071 28.4245 40.0852C28.1632 40.1193 27.9189 40.1747 27.6916 40.2514C27.4672 40.3253 27.2853 40.4375 27.1461 40.5881C27.0098 40.7358 26.9416 40.9375 26.9416 41.1932C26.9416 41.5426 27.0708 41.8068 27.3294 41.9858C27.5907 42.1619 27.9217 42.25 28.3223 42.25ZM34.0101 39.0625V43H33.0044V36.4545H33.976V37.4773H34.0613C34.2147 37.1449 34.4476 36.8778 34.7601 36.6761C35.0726 36.4716 35.476 36.3693 35.9703 36.3693C36.4135 36.3693 36.8013 36.4602 37.1337 36.642C37.4661 36.821 37.7246 37.0938 37.9093 37.4602C38.0939 37.8239 38.1863 38.2841 38.1863 38.8409V43H37.1806V38.9091C37.1806 38.3949 37.0471 37.9943 36.78 37.7074C36.513 37.4176 36.1465 37.2727 35.6806 37.2727C35.3596 37.2727 35.0726 37.3423 34.8198 37.4815C34.5698 37.6207 34.3723 37.8239 34.2275 38.0909C34.0826 38.358 34.0101 38.6818 34.0101 39.0625ZM42.6831 43.1364C42.0922 43.1364 41.5737 42.9957 41.1277 42.7145C40.6845 42.4332 40.3379 42.0398 40.0879 41.5341C39.8407 41.0284 39.7172 40.4375 39.7172 39.7614C39.7172 39.0795 39.8407 38.4844 40.0879 37.9759C40.3379 37.4673 40.6845 37.0724 41.1277 36.7912C41.5737 36.5099 42.0922 36.3693 42.6831 36.3693C43.274 36.3693 43.791 36.5099 44.2342 36.7912C44.6802 37.0724 45.0268 37.4673 45.274 37.9759C45.524 38.4844 45.649 39.0795 45.649 39.7614C45.649 40.4375 45.524 41.0284 45.274 41.5341C45.0268 42.0398 44.6802 42.4332 44.2342 42.7145C43.791 42.9957 43.274 43.1364 42.6831 43.1364ZM42.6831 42.233C43.1319 42.233 43.5012 42.1179 43.791 41.8878C44.0808 41.6577 44.2953 41.3551 44.4345 40.9801C44.5737 40.6051 44.6433 40.1989 44.6433 39.7614C44.6433 39.3239 44.5737 38.9162 44.4345 38.5384C44.2953 38.1605 44.0808 37.8551 43.791 37.6222C43.5012 37.3892 43.1319 37.2727 42.6831 37.2727C42.2342 37.2727 41.8649 37.3892 41.5751 37.6222C41.2853 37.8551 41.0708 38.1605 40.9316 38.5384C40.7924 38.9162 40.7228 39.3239 40.7228 39.7614C40.7228 40.1989 40.7924 40.6051 40.9316 40.9801C41.0708 41.3551 41.2853 41.6577 41.5751 41.8878C41.8649 42.1179 42.2342 42.233 42.6831 42.233ZM50.0307 36.4545V37.3068H46.6387V36.4545H50.0307ZM47.6273 34.8864H48.633V41.125C48.633 41.4091 48.6742 41.6222 48.7566 41.7642C48.8418 41.9034 48.9498 41.9972 49.0804 42.0455C49.214 42.0909 49.3546 42.1136 49.5023 42.1136C49.6131 42.1136 49.704 42.108 49.775 42.0966C49.8461 42.0824 49.9029 42.071 49.9455 42.0625L50.15 42.9659C50.0819 42.9915 49.9867 43.017 49.8645 43.0426C49.7424 43.071 49.5875 43.0852 49.4 43.0852C49.1159 43.0852 48.8375 43.0241 48.5648 42.902C48.2949 42.7798 48.0705 42.5938 47.8915 42.3438C47.7154 42.0938 47.6273 41.7784 47.6273 41.3977V34.8864ZM52.6898 39.0625V43H51.6841V34.2727H52.6898V37.4773H52.775C52.9284 37.1392 53.1586 36.8707 53.4654 36.6719C53.775 36.4702 54.187 36.3693 54.7012 36.3693C55.1472 36.3693 55.5378 36.4588 55.873 36.6378C56.2083 36.8139 56.4682 37.0852 56.6529 37.4517C56.8404 37.8153 56.9341 38.2784 56.9341 38.8409V43H55.9284V38.9091C55.9284 38.3892 55.7935 37.9872 55.5236 37.7031C55.2566 37.4162 54.8858 37.2727 54.4114 37.2727C54.0819 37.2727 53.7864 37.3423 53.525 37.4815C53.2665 37.6207 53.062 37.8239 52.9114 38.0909C52.7637 38.358 52.6898 38.6818 52.6898 39.0625ZM61.5183 43.1364C60.8876 43.1364 60.3436 42.9972 59.8862 42.7188C59.4316 42.4375 59.0808 42.0455 58.8336 41.5426C58.5893 41.0369 58.4672 40.4489 58.4672 39.7784C58.4672 39.108 58.5893 38.517 58.8336 38.0057C59.0808 37.4915 59.4245 37.0909 59.8649 36.804C60.3081 36.5142 60.8251 36.3693 61.416 36.3693C61.7569 36.3693 62.0936 36.4261 62.426 36.5398C62.7583 36.6534 63.0609 36.8381 63.3336 37.0938C63.6064 37.3466 63.8237 37.6818 63.9856 38.0994C64.1475 38.517 64.2285 39.0312 64.2285 39.642V40.0682H59.1831V39.1989H63.2058C63.2058 38.8295 63.1319 38.5 62.9842 38.2102C62.8393 37.9205 62.6319 37.6918 62.362 37.5241C62.095 37.3565 61.7797 37.2727 61.416 37.2727C61.0154 37.2727 60.6689 37.3722 60.3762 37.571C60.0865 37.767 59.8635 38.0227 59.7072 38.3381C59.551 38.6534 59.4728 38.9915 59.4728 39.3523V39.9318C59.4728 40.4261 59.5581 40.8452 59.7285 41.1889C59.9018 41.5298 60.1419 41.7898 60.4487 41.9688C60.7555 42.1449 61.112 42.233 61.5183 42.233C61.7825 42.233 62.0211 42.196 62.2342 42.1222C62.4501 42.0455 62.6362 41.9318 62.7924 41.7812C62.9487 41.6278 63.0694 41.4375 63.1547 41.2102L64.1262 41.483C64.024 41.8125 63.8521 42.1023 63.6106 42.3523C63.3691 42.5994 63.0708 42.7926 62.7157 42.9318C62.3606 43.0682 61.9615 43.1364 61.5183 43.1364ZM65.7583 43V36.4545H66.7299V37.4432H66.7981C66.9174 37.1193 67.1333 36.8565 67.4458 36.6548C67.7583 36.4531 68.1106 36.3523 68.5027 36.3523C68.5765 36.3523 68.6689 36.3537 68.7797 36.3565C68.8904 36.3594 68.9743 36.3636 69.0311 36.3693V37.392C68.997 37.3835 68.9189 37.3707 68.7967 37.3537C68.6774 37.3338 68.551 37.3239 68.4174 37.3239C68.0993 37.3239 67.8152 37.3906 67.5652 37.5241C67.318 37.6548 67.122 37.8366 66.9771 38.0696C66.835 38.2997 66.764 38.5625 66.764 38.858V43H65.7583ZM19.0431 52.9205L18.1397 53.1761C18.0829 53.0256 17.9991 52.8793 17.8883 52.7372C17.7804 52.5923 17.6326 52.473 17.4451 52.3793C17.2576 52.2855 17.0176 52.2386 16.725 52.2386C16.3244 52.2386 15.9906 52.331 15.7235 52.5156C15.4593 52.6974 15.3272 52.929 15.3272 53.2102C15.3272 53.4602 15.4181 53.6577 15.6 53.8026C15.7818 53.9474 16.0659 54.0682 16.4522 54.1648L17.4238 54.4034C18.0091 54.5455 18.4451 54.7628 18.7321 55.0554C19.019 55.3452 19.1625 55.7187 19.1625 56.1761C19.1625 56.5511 19.0545 56.8864 18.8386 57.1818C18.6255 57.4773 18.3272 57.7102 17.9437 57.8807C17.5602 58.0511 17.1142 58.1364 16.6056 58.1364C15.938 58.1364 15.3855 57.9915 14.948 57.7017C14.5105 57.4119 14.2335 56.9886 14.117 56.4318L15.0716 56.1932C15.1625 56.5455 15.3343 56.8097 15.5872 56.9858C15.8429 57.1619 16.1767 57.25 16.5886 57.25C17.0574 57.25 17.4295 57.1506 17.7051 56.9517C17.9835 56.75 18.1227 56.5085 18.1227 56.2273C18.1227 56 18.0431 55.8097 17.8841 55.6562C17.725 55.5 17.4806 55.3835 17.1511 55.3068L16.0602 55.0511C15.4608 54.9091 15.0204 54.6889 14.7392 54.3906C14.4608 54.0895 14.3216 53.7131 14.3216 53.2614C14.3216 52.892 14.4252 52.5653 14.6326 52.2812C14.8429 51.9972 15.1284 51.7741 15.4892 51.6122C15.8528 51.4503 16.2647 51.3693 16.725 51.3693C17.3727 51.3693 17.8812 51.5114 18.2505 51.7955C18.6227 52.0795 18.8869 52.4545 19.0431 52.9205ZM26.0286 51.4545L23.6081 58H22.5854L20.165 51.4545H21.2559L23.0627 56.6705H23.1309L24.9377 51.4545H26.0286ZM29.7637 60.5909C29.2779 60.5909 28.8603 60.5284 28.5108 60.4034C28.1614 60.2812 27.8702 60.1193 27.6373 59.9176C27.4071 59.7188 27.2239 59.5057 27.0875 59.2784L27.8887 58.7159C27.9796 58.8352 28.0946 58.9716 28.2338 59.125C28.373 59.2812 28.5634 59.4162 28.8049 59.5298C29.0492 59.6463 29.3688 59.7045 29.7637 59.7045C30.2921 59.7045 30.7282 59.5767 31.0719 59.321C31.4157 59.0653 31.5875 58.6648 31.5875 58.1193V56.7898H31.5023C31.4284 56.9091 31.3233 57.0568 31.187 57.233C31.0534 57.4062 30.8603 57.5611 30.6074 57.6974C30.3574 57.831 30.0194 57.8977 29.5932 57.8977C29.0648 57.8977 28.5904 57.7727 28.1699 57.5227C27.7523 57.2727 27.4213 56.9091 27.177 56.4318C26.9355 55.9545 26.8148 55.375 26.8148 54.6932C26.8148 54.0227 26.9327 53.4389 27.1685 52.9418C27.4043 52.4418 27.7324 52.0554 28.1529 51.7827C28.5733 51.5071 29.0591 51.3693 29.6103 51.3693C30.0364 51.3693 30.3745 51.4403 30.6245 51.5824C30.8773 51.7216 31.0705 51.8807 31.204 52.0597C31.3404 52.2358 31.4455 52.3807 31.5194 52.4943H31.6216V51.4545H32.5932V58.1875C32.5932 58.75 32.4654 59.2074 32.2097 59.5597C31.9569 59.9148 31.6159 60.1747 31.187 60.3395C30.7608 60.5071 30.2864 60.5909 29.7637 60.5909ZM29.7296 56.9943C30.133 56.9943 30.4739 56.902 30.7523 56.7173C31.0307 56.5327 31.2424 56.267 31.3873 55.9205C31.5321 55.5739 31.6046 55.1591 31.6046 54.6761C31.6046 54.2045 31.5336 53.7884 31.3915 53.4276C31.2495 53.0668 31.0392 52.7841 30.7608 52.5795C30.4824 52.375 30.1387 52.2727 29.7296 52.2727C29.3034 52.2727 28.9483 52.3807 28.6642 52.5966C28.383 52.8125 28.1713 53.1023 28.0293 53.4659C27.8901 53.8295 27.8205 54.233 27.8205 54.6761C27.8205 55.1307 27.8915 55.5327 28.0336 55.8821C28.1784 56.2287 28.3915 56.5014 28.6728 56.7003C28.9569 56.8963 29.3091 56.9943 29.7296 56.9943ZM40.5534 58.1364C39.9228 58.1364 39.3787 57.9972 38.9213 57.7188C38.4668 57.4375 38.1159 57.0455 37.8688 56.5426C37.6245 56.0369 37.5023 55.4489 37.5023 54.7784C37.5023 54.108 37.6245 53.517 37.8688 53.0057C38.1159 52.4915 38.4597 52.0909 38.9 51.804C39.3432 51.5142 39.8603 51.3693 40.4512 51.3693C40.7921 51.3693 41.1287 51.4261 41.4611 51.5398C41.7935 51.6534 42.0961 51.8381 42.3688 52.0938C42.6415 52.3466 42.8588 52.6818 43.0208 53.0994C43.1827 53.517 43.2637 54.0312 43.2637 54.642V55.0682H38.2182V54.1989H42.2409C42.2409 53.8295 42.1671 53.5 42.0194 53.2102C41.8745 52.9205 41.6671 52.6918 41.3972 52.5241C41.1301 52.3565 40.8148 52.2727 40.4512 52.2727C40.0506 52.2727 39.704 52.3722 39.4114 52.571C39.1216 52.767 38.8986 53.0227 38.7424 53.3381C38.5861 53.6534 38.508 53.9915 38.508 54.3523V54.9318C38.508 55.4261 38.5932 55.8452 38.7637 56.1889C38.937 56.5298 39.177 56.7898 39.4838 56.9688C39.7907 57.1449 40.1472 57.233 40.5534 57.233C40.8176 57.233 41.0563 57.196 41.2694 57.1222C41.4853 57.0455 41.6713 56.9318 41.8276 56.7812C41.9838 56.6278 42.1046 56.4375 42.1898 56.2102L43.1614 56.483C43.0591 56.8125 42.8873 57.1023 42.6458 57.3523C42.4043 57.5994 42.106 57.7926 41.7509 57.9318C41.3958 58.0682 40.9966 58.1364 40.5534 58.1364ZM45.3677 51.4545L46.9359 54.1307L48.5041 51.4545H49.6632L47.5495 54.7273L49.6632 58H48.5041L46.9359 55.4602L45.3677 58H44.2086L46.2882 54.7273L44.2086 51.4545H45.3677ZM53.0243 58.1534C52.6096 58.1534 52.2331 58.0753 51.8951 57.919C51.557 57.7599 51.2885 57.5312 51.0897 57.233C50.8908 56.9318 50.7914 56.5682 50.7914 56.142C50.7914 55.767 50.8652 55.4631 51.013 55.2301C51.1607 54.9943 51.3581 54.8097 51.6053 54.6761C51.8525 54.5426 52.1252 54.4432 52.4235 54.3778C52.7246 54.3097 53.0272 54.2557 53.3311 54.2159C53.7289 54.1648 54.0513 54.1264 54.2985 54.1009C54.5485 54.0724 54.7303 54.0256 54.8439 53.9602C54.9604 53.8949 55.0186 53.7812 55.0186 53.6193V53.5852C55.0186 53.1648 54.9036 52.8381 54.6735 52.6051C54.4462 52.3722 54.101 52.2557 53.638 52.2557C53.1578 52.2557 52.7814 52.3608 52.5087 52.571C52.236 52.7812 52.0442 53.0057 51.9334 53.2443L50.9789 52.9034C51.1493 52.5057 51.3766 52.196 51.6607 51.9744C51.9476 51.75 52.2601 51.5937 52.5982 51.5057C52.9391 51.4148 53.2743 51.3693 53.6039 51.3693C53.8141 51.3693 54.0556 51.3949 54.3283 51.446C54.6039 51.4943 54.8695 51.5952 55.1252 51.7486C55.3837 51.902 55.5982 52.1335 55.7686 52.4432C55.9391 52.7528 56.0243 53.1676 56.0243 53.6875V58H55.0186V57.1136H54.9675C54.8993 57.2557 54.7857 57.4077 54.6266 57.5696C54.4675 57.7315 54.2559 57.8693 53.9917 57.983C53.7275 58.0966 53.405 58.1534 53.0243 58.1534ZM53.1777 57.25C53.5755 57.25 53.9107 57.1719 54.1834 57.0156C54.459 56.8594 54.6664 56.6577 54.8056 56.4105C54.9476 56.1634 55.0186 55.9034 55.0186 55.6307V54.7102C54.976 54.7614 54.8823 54.8082 54.7374 54.8509C54.5953 54.8906 54.4306 54.9261 54.2431 54.9574C54.0584 54.9858 53.878 55.0114 53.7019 55.0341C53.5286 55.054 53.388 55.071 53.28 55.0852C53.0186 55.1193 52.7743 55.1747 52.5471 55.2514C52.3226 55.3253 52.1408 55.4375 52.0016 55.5881C51.8652 55.7358 51.7971 55.9375 51.7971 56.1932C51.7971 56.5426 51.9263 56.8068 52.1848 56.9858C52.4462 57.1619 52.7772 57.25 53.1777 57.25ZM57.8599 58V51.4545H58.8315V52.4773H58.9167C59.0531 52.1278 59.2733 51.8565 59.5772 51.6634C59.8812 51.4673 60.2463 51.3693 60.6724 51.3693C61.1042 51.3693 61.4636 51.4673 61.7505 51.6634C62.0403 51.8565 62.2662 52.1278 62.4281 52.4773H62.4963C62.6639 52.1392 62.9153 51.8707 63.2505 51.6719C63.5858 51.4702 63.9877 51.3693 64.4565 51.3693C65.0417 51.3693 65.5204 51.5526 65.8926 51.919C66.2647 52.2827 66.4508 52.8494 66.4508 53.6193V58H65.4451V53.6193C65.4451 53.1364 65.313 52.7912 65.0488 52.5838C64.7846 52.3764 64.4735 52.2727 64.1156 52.2727C63.6554 52.2727 63.2988 52.4119 63.046 52.6903C62.7931 52.9659 62.6667 53.3153 62.6667 53.7386V58H61.644V53.517C61.644 53.1449 61.5233 52.8452 61.2818 52.6179C61.0403 52.3878 60.7292 52.2727 60.3485 52.2727C60.0872 52.2727 59.8429 52.3423 59.6156 52.4815C59.3912 52.6207 59.2093 52.8139 59.0701 53.0611C58.9338 53.3054 58.8656 53.5881 58.8656 53.9091V58H57.8599ZM68.2896 60.4545V51.4545H69.2612V52.4943H69.3805C69.4544 52.3807 69.5566 52.2358 69.6873 52.0597C69.8208 51.8807 70.0112 51.7216 70.2583 51.5824C70.5083 51.4403 70.8464 51.3693 71.2725 51.3693C71.8237 51.3693 72.3095 51.5071 72.7299 51.7827C73.1504 52.0582 73.4785 52.4489 73.7143 52.9545C73.9501 53.4602 74.068 54.0568 74.068 54.7443C74.068 55.4375 73.9501 56.0384 73.7143 56.5469C73.4785 57.0526 73.1518 57.4446 72.7342 57.723C72.3166 57.9986 71.835 58.1364 71.2896 58.1364C70.8691 58.1364 70.5325 58.0668 70.2797 57.9276C70.0268 57.7855 69.8322 57.625 69.6958 57.446C69.5595 57.2642 69.4544 57.1136 69.3805 56.9943H69.2953V60.4545H68.2896ZM69.2782 54.7273C69.2782 55.2216 69.3507 55.6577 69.4956 56.0355C69.6404 56.4105 69.8521 56.7045 70.1305 56.9176C70.4089 57.1278 70.7498 57.233 71.1532 57.233C71.5737 57.233 71.9245 57.1222 72.2058 56.9006C72.4899 56.6761 72.7029 56.375 72.845 55.9972C72.9899 55.6165 73.0623 55.1932 73.0623 54.7273C73.0623 54.267 72.9913 53.8523 72.8493 53.483C72.71 53.1108 72.4984 52.8168 72.2143 52.6009C71.9331 52.3821 71.5794 52.2727 71.1532 52.2727C70.7441 52.2727 70.4004 52.3764 70.122 52.5838C69.8436 52.7884 69.6333 53.0753 69.4913 53.4446C69.3493 53.8111 69.2782 54.2386 69.2782 54.7273ZM76.6078 49.2727V58H75.6021V49.2727H76.6078ZM81.1941 58.1364C80.5634 58.1364 80.0194 57.9972 79.562 57.7188C79.1074 57.4375 78.7566 57.0455 78.5094 56.5426C78.2651 56.0369 78.1429 55.4489 78.1429 54.7784C78.1429 54.108 78.2651 53.517 78.5094 53.0057C78.7566 52.4915 79.1003 52.0909 79.5407 51.804C79.9838 51.5142 80.5009 51.3693 81.0918 51.3693C81.4327 51.3693 81.7694 51.4261 82.1017 51.5398C82.4341 51.6534 82.7367 51.8381 83.0094 52.0938C83.2821 52.3466 83.4995 52.6818 83.6614 53.0994C83.8233 53.517 83.9043 54.0312 83.9043 54.642V55.0682H78.8588V54.1989H82.8816C82.8816 53.8295 82.8077 53.5 82.66 53.2102C82.5151 52.9205 82.3077 52.6918 82.0378 52.5241C81.7708 52.3565 81.4554 52.2727 81.0918 52.2727C80.6912 52.2727 80.3446 52.3722 80.052 52.571C79.7623 52.767 79.5392 53.0227 79.383 53.3381C79.2267 53.6534 79.1486 53.9915 79.1486 54.3523V54.9318C79.1486 55.4261 79.2338 55.8452 79.4043 56.1889C79.5776 56.5298 79.8176 56.7898 80.1245 56.9688C80.4313 57.1449 80.7878 57.233 81.1941 57.233C81.4583 57.233 81.6969 57.196 81.91 57.1222C82.1259 57.0455 82.312 56.9318 82.4682 56.7812C82.6245 56.6278 82.7452 56.4375 82.8304 56.2102L83.802 56.483C83.6998 56.8125 83.5279 57.1023 83.2864 57.3523C83.0449 57.5994 82.7466 57.7926 82.3915 57.9318C82.0364 58.0682 81.6373 58.1364 81.1941 58.1364Z" fill="white"/>
</svg>
