<svg width="98" height="91" viewBox="0 0 98 91" fill="none" xmlns="http://www.w3.org/2000/svg">
<rect width="98" height="91" rx="4" fill="#D58989"/>
<path d="M18.5568 44.9205L17.6534 45.1761C17.5966 45.0256 17.5128 44.8793 17.402 44.7372C17.294 44.5923 17.1463 44.473 16.9588 44.3793C16.7713 44.2855 16.5312 44.2386 16.2386 44.2386C15.8381 44.2386 15.5043 44.331 15.2372 44.5156C14.973 44.6974 14.8409 44.929 14.8409 45.2102C14.8409 45.4602 14.9318 45.6577 15.1136 45.8026C15.2955 45.9474 15.5795 46.0682 15.9659 46.1648L16.9375 46.4034C17.5227 46.5455 17.9588 46.7628 18.2457 47.0554C18.5327 47.3452 18.6761 47.7187 18.6761 48.1761C18.6761 48.5511 18.5682 48.8864 18.3523 49.1818C18.1392 49.4773 17.8409 49.7102 17.4574 49.8807C17.0739 50.0511 16.6278 50.1364 16.1193 50.1364C15.4517 50.1364 14.8991 49.9915 14.4616 49.7017C14.0241 49.4119 13.7472 48.9886 13.6307 48.4318L14.5852 48.1932C14.6761 48.5455 14.848 48.8097 15.1009 48.9858C15.3565 49.1619 15.6903 49.25 16.1023 49.25C16.571 49.25 16.9432 49.1506 17.2188 48.9517C17.4972 48.75 17.6364 48.5085 17.6364 48.2273C17.6364 48 17.5568 47.8097 17.3977 47.6562C17.2386 47.5 16.9943 47.3835 16.6648 47.3068L15.5739 47.0511C14.9744 46.9091 14.5341 46.6889 14.2528 46.3906C13.9744 46.0895 13.8352 45.7131 13.8352 45.2614C13.8352 44.892 13.9389 44.5653 14.1463 44.2812C14.3565 43.9972 14.642 43.7741 15.0028 43.6122C15.3665 43.4503 15.7784 43.3693 16.2386 43.3693C16.8864 43.3693 17.3949 43.5114 17.7642 43.7955C18.1364 44.0795 18.4006 44.4545 18.5568 44.9205ZM25.5423 43.4545L23.1218 50H22.0991L19.6786 43.4545H20.7695L22.5763 48.6705H22.6445L24.4513 43.4545H25.5423ZM29.2773 52.5909C28.7915 52.5909 28.3739 52.5284 28.0245 52.4034C27.6751 52.2812 27.3839 52.1193 27.1509 51.9176C26.9208 51.7188 26.7376 51.5057 26.6012 51.2784L27.4023 50.7159C27.4933 50.8352 27.6083 50.9716 27.7475 51.125C27.8867 51.2812 28.0771 51.4162 28.3185 51.5298C28.5629 51.6463 28.8825 51.7045 29.2773 51.7045C29.8058 51.7045 30.2418 51.5767 30.5856 51.321C30.9293 51.0653 31.1012 50.6648 31.1012 50.1193V48.7898H31.016C30.9421 48.9091 30.837 49.0568 30.7006 49.233C30.5671 49.4062 30.3739 49.5611 30.1211 49.6974C29.8711 49.831 29.533 49.8977 29.1069 49.8977C28.5785 49.8977 28.104 49.7727 27.6836 49.5227C27.266 49.2727 26.935 48.9091 26.6907 48.4318C26.4492 47.9545 26.3285 47.375 26.3285 46.6932C26.3285 46.0227 26.4464 45.4389 26.6822 44.9418C26.918 44.4418 27.2461 44.0554 27.6665 43.7827C28.087 43.5071 28.5728 43.3693 29.1239 43.3693C29.5501 43.3693 29.8881 43.4403 30.1381 43.5824C30.391 43.7216 30.5842 43.8807 30.7177 44.0597C30.854 44.2358 30.9592 44.3807 31.033 44.4943H31.1353V43.4545H32.1069V50.1875C32.1069 50.75 31.979 51.2074 31.7234 51.5597C31.4705 51.9148 31.1296 52.1747 30.7006 52.3395C30.2745 52.5071 29.8001 52.5909 29.2773 52.5909ZM29.2433 48.9943C29.6467 48.9943 29.9876 48.902 30.266 48.7173C30.5444 48.5327 30.756 48.267 30.9009 47.9205C31.0458 47.5739 31.1183 47.1591 31.1183 46.6761C31.1183 46.2045 31.0472 45.7884 30.9052 45.4276C30.7631 45.0668 30.5529 44.7841 30.2745 44.5795C29.9961 44.375 29.6523 44.2727 29.2433 44.2727C28.8171 44.2727 28.462 44.3807 28.1779 44.5966C27.8967 44.8125 27.685 45.1023 27.543 45.4659C27.4038 45.8295 27.3342 46.233 27.3342 46.6761C27.3342 47.1307 27.4052 47.5327 27.5472 47.8821C27.6921 48.2287 27.9052 48.5014 28.1864 48.7003C28.4705 48.8963 28.8228 48.9943 29.2433 48.9943ZM40.0671 50.1364C39.4364 50.1364 38.8924 49.9972 38.435 49.7188C37.9805 49.4375 37.6296 49.0455 37.3825 48.5426C37.1381 48.0369 37.016 47.4489 37.016 46.7784C37.016 46.108 37.1381 45.517 37.3825 45.0057C37.6296 44.4915 37.9734 44.0909 38.4137 43.804C38.8569 43.5142 39.3739 43.3693 39.9648 43.3693C40.3058 43.3693 40.6424 43.4261 40.9748 43.5398C41.3072 43.6534 41.6097 43.8381 41.8825 44.0938C42.1552 44.3466 42.3725 44.6818 42.5344 45.0994C42.6964 45.517 42.7773 46.0312 42.7773 46.642V47.0682H37.7319V46.1989H41.7546C41.7546 45.8295 41.6808 45.5 41.533 45.2102C41.3881 44.9205 41.1808 44.6918 40.9109 44.5241C40.6438 44.3565 40.3285 44.2727 39.9648 44.2727C39.5643 44.2727 39.2177 44.3722 38.9251 44.571C38.6353 44.767 38.4123 45.0227 38.256 45.3381C38.0998 45.6534 38.0217 45.9915 38.0217 46.3523V46.9318C38.0217 47.4261 38.1069 47.8452 38.2773 48.1889C38.4506 48.5298 38.6907 48.7898 38.9975 48.9688C39.3043 49.1449 39.6609 49.233 40.0671 49.233C40.3313 49.233 40.57 49.196 40.783 49.1222C40.9989 49.0455 41.185 48.9318 41.3413 48.7812C41.4975 48.6278 41.6183 48.4375 41.7035 48.2102L42.6751 48.483C42.5728 48.8125 42.4009 49.1023 42.1594 49.3523C41.918 49.5994 41.6197 49.7926 41.2646 49.9318C40.9094 50.0682 40.5103 50.1364 40.0671 50.1364ZM44.8814 43.4545L46.4496 46.1307L48.0178 43.4545H49.1768L47.0632 46.7273L49.1768 50H48.0178L46.4496 47.4602L44.8814 50H43.7223L45.8018 46.7273L43.7223 43.4545H44.8814ZM52.538 50.1534C52.1232 50.1534 51.7468 50.0753 51.4087 49.919C51.0707 49.7599 50.8022 49.5312 50.6033 49.233C50.4045 48.9318 50.305 48.5682 50.305 48.142C50.305 47.767 50.3789 47.4631 50.5266 47.2301C50.6744 46.9943 50.8718 46.8097 51.119 46.6761C51.3661 46.5426 51.6388 46.4432 51.9371 46.3778C52.2383 46.3097 52.5408 46.2557 52.8448 46.2159C53.2425 46.1648 53.565 46.1264 53.8121 46.1009C54.0621 46.0724 54.244 46.0256 54.3576 45.9602C54.4741 45.8949 54.5323 45.7812 54.5323 45.6193V45.5852C54.5323 45.1648 54.4173 44.8381 54.1871 44.6051C53.9599 44.3722 53.6147 44.2557 53.1516 44.2557C52.6715 44.2557 52.2951 44.3608 52.0224 44.571C51.7496 44.7812 51.5579 45.0057 51.4471 45.2443L50.4925 44.9034C50.663 44.5057 50.8903 44.196 51.1744 43.9744C51.4613 43.75 51.7738 43.5937 52.1119 43.5057C52.4528 43.4148 52.788 43.3693 53.1175 43.3693C53.3278 43.3693 53.5692 43.3949 53.842 43.446C54.1175 43.4943 54.3832 43.5952 54.6388 43.7486C54.8974 43.902 55.1119 44.1335 55.2823 44.4432C55.4528 44.7528 55.538 45.1676 55.538 45.6875V50H54.5323V49.1136H54.4812C54.413 49.2557 54.2994 49.4077 54.1403 49.5696C53.9812 49.7315 53.7695 49.8693 53.5053 49.983C53.2411 50.0966 52.9187 50.1534 52.538 50.1534ZM52.6914 49.25C53.0891 49.25 53.4244 49.1719 53.6971 49.0156C53.9727 48.8594 54.18 48.6577 54.3192 48.4105C54.4613 48.1634 54.5323 47.9034 54.5323 47.6307V46.7102C54.4897 46.7614 54.396 46.8082 54.2511 46.8509C54.109 46.8906 53.9442 46.9261 53.7567 46.9574C53.5721 46.9858 53.3917 47.0114 53.2156 47.0341C53.0423 47.054 52.9016 47.071 52.7937 47.0852C52.5323 47.1193 52.288 47.1747 52.0607 47.2514C51.8363 47.3253 51.6545 47.4375 51.5153 47.5881C51.3789 47.7358 51.3107 47.9375 51.3107 48.1932C51.3107 48.5426 51.44 48.8068 51.6985 48.9858C51.9599 49.1619 52.2908 49.25 52.6914 49.25ZM57.3736 50V43.4545H58.3452V44.4773H58.4304C58.5668 44.1278 58.7869 43.8565 59.0909 43.6634C59.3949 43.4673 59.7599 43.3693 60.1861 43.3693C60.6179 43.3693 60.9773 43.4673 61.2642 43.6634C61.554 43.8565 61.7798 44.1278 61.9418 44.4773H62.0099C62.1776 44.1392 62.429 43.8707 62.7642 43.6719C63.0994 43.4702 63.5014 43.3693 63.9702 43.3693C64.5554 43.3693 65.0341 43.5526 65.4062 43.919C65.7784 44.2827 65.9645 44.8494 65.9645 45.6193V50H64.9588V45.6193C64.9588 45.1364 64.8267 44.7912 64.5625 44.5838C64.2983 44.3764 63.9872 44.2727 63.6293 44.2727C63.169 44.2727 62.8125 44.4119 62.5597 44.6903C62.3068 44.9659 62.1804 45.3153 62.1804 45.7386V50H61.1577V45.517C61.1577 45.1449 61.0369 44.8452 60.7955 44.6179C60.554 44.3878 60.2429 44.2727 59.8622 44.2727C59.6009 44.2727 59.3565 44.3423 59.1293 44.4815C58.9048 44.6207 58.723 44.8139 58.5838 45.0611C58.4474 45.3054 58.3793 45.5881 58.3793 45.9091V50H57.3736ZM67.8033 52.4545V43.4545H68.7749V44.4943H68.8942C68.968 44.3807 69.0703 44.2358 69.201 44.0597C69.3345 43.8807 69.5249 43.7216 69.772 43.5824C70.022 43.4403 70.3601 43.3693 70.7862 43.3693C71.3374 43.3693 71.8232 43.5071 72.2436 43.7827C72.6641 44.0582 72.9922 44.4489 73.228 44.9545C73.4638 45.4602 73.5817 46.0568 73.5817 46.7443C73.5817 47.4375 73.4638 48.0384 73.228 48.5469C72.9922 49.0526 72.6655 49.4446 72.2479 49.723C71.8303 49.9986 71.3487 50.1364 70.8033 50.1364C70.3828 50.1364 70.0462 50.0668 69.7933 49.9276C69.5405 49.7855 69.3459 49.625 69.2095 49.446C69.0732 49.2642 68.968 49.1136 68.8942 48.9943H68.8089V52.4545H67.8033ZM68.7919 46.7273C68.7919 47.2216 68.8643 47.6577 69.0092 48.0355C69.1541 48.4105 69.3658 48.7045 69.6442 48.9176C69.9226 49.1278 70.2635 49.233 70.6669 49.233C71.0874 49.233 71.4382 49.1222 71.7195 48.9006C72.0036 48.6761 72.2166 48.375 72.3587 47.9972C72.5036 47.6165 72.576 47.1932 72.576 46.7273C72.576 46.267 72.505 45.8523 72.3629 45.483C72.2237 45.1108 72.0121 44.8168 71.728 44.6009C71.4467 44.3821 71.093 44.2727 70.6669 44.2727C70.2578 44.2727 69.9141 44.3764 69.6357 44.5838C69.3572 44.7884 69.147 45.0753 69.005 45.4446C68.8629 45.8111 68.7919 46.2386 68.7919 46.7273ZM76.1214 41.2727V50H75.1158V41.2727H76.1214ZM80.7077 50.1364C80.0771 50.1364 79.533 49.9972 79.0756 49.7188C78.6211 49.4375 78.2702 49.0455 78.0231 48.5426C77.7788 48.0369 77.6566 47.4489 77.6566 46.7784C77.6566 46.108 77.7788 45.517 78.0231 45.0057C78.2702 44.4915 78.614 44.0909 79.0543 43.804C79.4975 43.5142 80.0146 43.3693 80.6055 43.3693C80.9464 43.3693 81.283 43.4261 81.6154 43.5398C81.9478 43.6534 82.2504 43.8381 82.5231 44.0938C82.7958 44.3466 83.0131 44.6818 83.1751 45.0994C83.337 45.517 83.418 46.0312 83.418 46.642V47.0682H78.3725V46.1989H82.3952C82.3952 45.8295 82.3214 45.5 82.1737 45.2102C82.0288 44.9205 81.8214 44.6918 81.5515 44.5241C81.2844 44.3565 80.9691 44.2727 80.6055 44.2727C80.2049 44.2727 79.8583 44.3722 79.5657 44.571C79.2759 44.767 79.0529 45.0227 78.8967 45.3381C78.7404 45.6534 78.6623 45.9915 78.6623 46.3523V46.9318C78.6623 47.4261 78.7475 47.8452 78.918 48.1889C79.0913 48.5298 79.3313 48.7898 79.6381 48.9688C79.945 49.1449 80.3015 49.233 80.7077 49.233C80.9719 49.233 81.2106 49.196 81.4237 49.1222C81.6396 49.0455 81.8256 48.9318 81.9819 48.7812C82.1381 48.6278 82.2589 48.4375 82.3441 48.2102L83.3157 48.483C83.2134 48.8125 83.0415 49.1023 82.8001 49.3523C82.5586 49.5994 82.2603 49.7926 81.9052 49.9318C81.5501 50.0682 81.1509 50.1364 80.7077 50.1364Z" fill="white"/>
</svg>
